- 
http://www.Speed.Cd
 
http://www.Speed.Cd       the fast  and The Hottest Private Tracker on the net

Please Seed back to make the speed Faster!!
 ............ NFO .............
-[IMG]http://i.imgur.com/0uaOzQD.jpg[/IMG]

Source: DVDR  L-S
 
http://www.highfliersplc.com/product/518/

When young Owen rescues a lovable dog from a gang of jewel thieves, he's unaware that the dog is carrying a stash of stolen diamonds. The thieves will do anything to get their jewels back, but Owen is determined to keep his new found friend. A mixture of Home Alone and Marmaduke, Hot Dog is a feel good comedy that's fun for the whole family.

General
Complete name                            : Hot Dog 2013 DVDRip x264 AAC-OFFLiNE.mp4
Format                                   : MPEG-4
Format profile                           : Base Media
Codec ID                                 : isom
File size                                : 1.44 GiB
Duration                                 : 1h 43mn
Overall bit rate mode                    : Variable
Overall bit rate                         : 2 000 Kbps
Encoded date                             : UTC 2013-03-05 21:30:18
Tagged date                              : UTC 2013-03-05 21:30:18

Video
ID                                       : 1
Format                                   : AVC
Format/Info                              : Advanced Video Codec
Format profile                           : High@L4.1
Format settings, CABAC                   : Yes
Format settings, ReFrames                : 3 frames
Codec ID                                 : avc1
Codec ID/Info                            : Advanced Video Coding
Duration                                 : 1h 43mn
Bit rate mode                            : Variable
Bit rate                                 : 1 656 Kbps
Maximum bit rate                         : 40.0 Mbps
Width                                    : 720 pixels
Height                                   : 384 pixels
Display aspect ratio                     : 1.85:1
Frame rate mode                          : Constant
Frame rate                               : 25.000 fps
Color space                              : YUV
Chroma subsampling                       : 4:2:0
Bit depth                                : 8 bits
Scan type                                : Progressive
Bits/(Pixel*Frame)                       : 0.240
Stream size                              : 1.19 GiB (83%)
Writing library                          : x264 core 130 r2273 b3065e6

Audio
ID                                       : 2
Format                                   : AAC
Format/Info                              : Advanced Audio Codec
Format profile                           : LC
Codec ID                                 : 40
Duration                                 : 1h 43mn
Bit rate mode                            : Variable
Bit rate                                 : 341 Kbps
Maximum bit rate                         : 386 Kbps
Channel(s)                               : 6 channels
Channel positions                        : Front: L C R, Side: L R, LFE
Sampling rate                            : 48.0 KHz
Compression mode                         : Lossy
Stream size                              : 252 MiB (17%)
Language                                 : English
Encoded date                             : UTC 2013-03-05 19:22:49
Tagged date                              : UTC 2013-03-05 21:31:01

[IMG]http://i.imgur.com/qrxvmVq.png[/IMG]
[IMG]http://i.imgur.com/V8tT6VC.png[/IMG]
[IMG]http://i.imgur.com/EGsJ9l9.png[/IMG]
[IMG]http://i.imgur.com/MskEBJi.png[/IMG]

Greets: To Our Friends